<?xml version="1.0" encoding="utf-8"?>
<!-- Generator: Adobe Illustrator 19.2.0, SVG Export Plug-In . SVG Version: 6.00 Build 0)  -->
<svg version="1.1" id="Layer_1" xmlns="http://www.w3.org/2000/svg" xmlns:xlink="http://www.w3.org/1999/xlink" x="0px" y="0px"
	 viewBox="0 0 32 32" style="enable-background:new 0 0 32 32;" xml:space="preserve">
<style type="text/css">
	.st0{fill:#087CAF;}
	.st1{fill:#188FD1;}
	.st2{opacity:0.2;enable-background:new    ;}
	.st3{fill:#EA3939;}
	.st4{fill:#FFFFFF;}
</style>
<rect class="st0" width="32" height="32"/>
<g>
	<path d="M13.5,15.4c-0.5,0.7-0.6,1.5-0.4,2.2c0,0.2,0.1,0.4,0.2,0.6l1.7-2.2l2.2-1.7c-0.2-0.1-0.5-0.2-0.8-0.2c-0.1,0-0.2,0-0.4,0
		c-0.2,0-0.4,0-0.6,0.1C14.6,14.2,14,14.7,13.5,15.4z"/>
	<path d="M18.8,18.2c0.2-0.6,0.3-1.2,0.2-1.8c0-0.2-0.1-0.4-0.2-0.6l-1.7,2.2l-2.2,1.7c0.2,0.1,0.5,0.2,0.8,0.2c0.1,0,0.2,0,0.4,0
		c0.2,0,0.4,0,0.6-0.1c0.3-0.1,0.6-0.2,0.9-0.4C18.1,19.2,18.5,18.8,18.8,18.2z"/>
	<path class="st1" d="M27.2,15.5l-0.3-1.7c-0.5-1.9-1.5-3.5-2.9-4.9c-2.3-2.2-4.9-3.3-8.1-3.3c-0.5,0-1,0-1.5,0.1L12.8,6
		c-1.9,0.5-3.5,1.5-4.9,2.9c-2.2,2.2-3.3,4.9-3.3,8.1c0,0.5,0,1,0.1,1.5l0.3,1.7C5.6,22,6.6,23.7,7.9,25c2.2,2.2,4.9,3.3,8.1,3.3
		c0.5,0,1,0,1.5-0.1l1.7-0.3c1.9-0.5,3.5-1.5,4.9-2.9c2.2-2.2,3.3-4.9,3.3-8.1C27.4,16.5,27.3,16,27.2,15.5z"/>
	<path class="st2" d="M20.7,18.7L18.5,17c0,0,0-0.1,0-0.1l3.9-2.8l-4.6,1.1c0,0,0,0-0.1-0.1l0.1-2.8L16,14.5c0,0-0.1,0-0.1,0
		L13,10.7l1.1,4.6c0,0,0,0-0.1,0.1l-2.8-0.1l2.2,1.7c0,0,0,0.1,0,0.1L9.7,20l4.6-1.1c0,0,0,0,0.1,0.1l-0.1,2.8l1.7-2.2
		c0,0,0.1,0,0.1,0l2.8,3.9l-1.1-4.6c0,0,0,0,0.1-0.1L20.7,18.7z M16,19c-1.1,0-2-0.9-2-2s0.9-2,2-2s2,0.9,2,2S17.1,19,16,19z"/>
	<polygon class="st3" points="17,18 23.8,9.2 15,16 	"/>
	<polygon class="st4" points="15,16 8.2,24.8 17,18 	"/>
</g>
</svg>
