<?xml version="1.0" encoding="utf-8"?>
<!-- Generator: Adobe Illustrator 19.2.0, SVG Export Plug-In . SVG Version: 6.00 Build 0)  -->
<svg version="1.1" id="Layer_1" xmlns="http://www.w3.org/2000/svg" xmlns:xlink="http://www.w3.org/1999/xlink" x="0px" y="0px"
	 viewBox="0 0 81.9 26" style="enable-background:new 0 0 81.9 26;" xml:space="preserve">
<style type="text/css">
	.st0{fill:#FFFDFE;}
</style>
<g>
	<g>
		<path class="st0" d="M74.4,6.9c-3.7-6-9.2-1.8-9.2-1.8c-0.4,0.3-1,0.5-1.5,0.5h-1.5c-0.4,0-1.1-0.2-1.5-0.5c0,0-5.5-4.2-9.2,1.8
			c-3.7,6-2.2,12.5-2.2,12.5c0.3,1.6,1.1,2.7,2.7,2.5c1.6-0.1,5.1-4.3,5.1-4.3c0.3-0.3,0.9-0.6,1.3-0.6l8.8,0c0.4,0,1,0.3,1.3,0.6
			c0,0,3.5,4.2,5.1,4.3c1.6,0.1,2.5-0.9,2.7-2.5C76.5,19.4,78,12.9,74.4,6.9L74.4,6.9z M59.7,11.8h-1.9v1.8l-1.9,0v-1.8h-1.8l0-1.9
			h1.9V8l1.9,0l0,1.9h1.8L59.7,11.8z M68.4,13.9c-0.8,0-1.5-0.7-1.5-1.5c0-0.8,0.7-1.5,1.5-1.5c0.8,0,1.5,0.7,1.5,1.5
			C69.9,13.2,69.2,13.9,68.4,13.9L68.4,13.9z M68.4,9.7c-0.8,0-1.5-0.7-1.5-1.5c0-0.8,0.7-1.5,1.5-1.5c0.8,0,1.5,0.7,1.5,1.5
			C69.9,9.1,69.2,9.7,68.4,9.7L68.4,9.7z M72.1,11.9c-0.8,0-1.5-0.7-1.5-1.5c0-0.8,0.7-1.5,1.5-1.5c0.8,0,1.5,0.7,1.5,1.5
			C73.6,11.3,72.9,11.9,72.1,11.9L72.1,11.9z M72.1,11.9"/>
	</g>
</g>
<g>
	<path class="st0" d="M16.3,18.4h-5.1v-4.5h6.6C21.5,13.9,21.5,18.4,16.3,18.4 M11.2,7.4h6.3c3.6,0,3.4,3.9-0.5,3.9h-5.9V7.4z
		 M21.5,12.2c3-1.8,2.5-7.3-3-7.3H6.7C5.8,4.9,5,5.6,5,6.6v12.9c0,0.9,0.8,1.7,1.7,1.7H17C25.2,21.1,26.2,13.8,21.5,12.2z"/>
	<path class="st0" d="M42.3,4.9H25.1c-0.7,0-1.5,0.6-1.5,1.4c0,0.7,0.8,1.4,1.5,1.4h5.7v11.8c0,0.9,0.8,1.7,1.7,1.7h2.7
		c0.9,0,1.7-0.8,1.7-1.7V7.6h5.4c0.7,0,1.5-0.6,1.5-1.4C43.8,5.5,43,4.9,42.3,4.9"/>
</g>
</svg>
