<?xml version="1.0" encoding="utf-8"?>
<!-- Generator: Adobe Illustrator 19.2.0, SVG Export Plug-In . SVG Version: 6.00 Build 0)  -->
<svg version="1.1" id="Layer_1" xmlns="http://www.w3.org/2000/svg" xmlns:xlink="http://www.w3.org/1999/xlink" x="0px" y="0px"
	 viewBox="0 0 35.2 20.8" style="enable-background:new 0 0 35.2 20.8;" xml:space="preserve">
<style type="text/css">
	.st0{fill:#EA3E93;}
</style>
<g>
	<g>
		<path class="st0" d="M29.5,4.5c-3.7-6-9.2-1.8-9.2-1.8c-0.4,0.3-1,0.5-1.5,0.5h-1.5c-0.4,0-1.1-0.2-1.5-0.5c0,0-5.5-4.2-9.2,1.8
			C3.1,10.5,4.6,17,4.6,17c0.3,1.6,1.1,2.7,2.7,2.5c1.6-0.1,5.1-4.3,5.1-4.3c0.3-0.3,0.9-0.6,1.3-0.6l8.8,0c0.4,0,1,0.3,1.3,0.6
			c0,0,3.5,4.2,5.1,4.3c1.6,0.1,2.5-0.9,2.7-2.5C31.7,17,33.1,10.5,29.5,4.5L29.5,4.5z M14.8,9.4h-1.9v1.8l-1.9,0V9.4H9.2l0-1.9h1.9
			V5.6l1.9,0l0,1.9h1.8L14.8,9.4z M23.5,11.4c-0.8,0-1.5-0.7-1.5-1.5c0-0.8,0.7-1.5,1.5-1.5c0.8,0,1.5,0.7,1.5,1.5
			C25,10.8,24.3,11.4,23.5,11.4L23.5,11.4z M23.5,7.3c-0.8,0-1.5-0.7-1.5-1.5c0-0.8,0.7-1.5,1.5-1.5C24.3,4.3,25,5,25,5.8
			C25,6.7,24.3,7.3,23.5,7.3L23.5,7.3z M27.2,9.5c-0.8,0-1.5-0.7-1.5-1.5c0-0.8,0.7-1.5,1.5-1.5c0.8,0,1.5,0.7,1.5,1.5
			C28.7,8.9,28.1,9.5,27.2,9.5L27.2,9.5z M27.2,9.5"/>
	</g>
</g>
</svg>
