<?xml version="1.0" encoding="utf-8"?>
<!-- Generator: Adobe Illustrator 19.2.0, SVG Export Plug-In . SVG Version: 6.00 Build 0)  -->
<svg version="1.1" id="Layer_1" xmlns="http://www.w3.org/2000/svg" xmlns:xlink="http://www.w3.org/1999/xlink" x="0px" y="0px"
	 viewBox="0 0 64 31.2" style="enable-background:new 0 0 64 31.2;" xml:space="preserve">
<style type="text/css">
	.st0{fill:#DBDBDB;}
</style>
<g>
	<path class="st0" d="M0.7,22.9v-0.1c0-1.5,1.3-2.4,2.9-2.4c2,0,2.9,1.1,2.9,2.9v0.3H6.2c0-2.1-0.9-3-2.6-3H3.5
		c-1.4,0-2.6,0.8-2.6,2.1v0.1c0,1.2,0.7,1.9,2.7,2.1c2.1,0.2,2.9,1.1,2.9,2.5v0.1c0,1.6-1.3,2.5-2.9,2.5c-2,0-2.9-1.2-2.9-3v-0.1
		h0.2c0,1.9,1,2.9,2.6,2.9h0.1c1.5,0,2.6-0.8,2.6-2.2v-0.1c0-1.4-0.8-2.1-2.7-2.3C1.4,24.9,0.7,24.1,0.7,22.9z"/>
	<path class="st0" d="M8,26.8c0,1.7,0.7,2.9,2.4,2.9s2.3-1,2.3-1.9h0.2v0.1c0,0.9-0.7,2.1-2.5,2.1c-1.8,0-2.6-1.4-2.6-3.2v-0.2
		c0-1.8,0.8-3.2,2.6-3.2s2.6,1.4,2.6,3.2v0.2H8z M8,26.6h4.6c0-1.7-0.7-2.9-2.3-2.9S8,24.9,8,26.6z"/>
	<path class="st0" d="M14.5,20.2h0.2v9.8h-0.2V20.2z"/>
	<path class="st0" d="M16.7,26.8c0,1.7,0.7,2.9,2.4,2.9s2.3-1,2.3-1.9h0.2v0.1c0,0.9-0.7,2.1-2.5,2.1c-1.8,0-2.6-1.4-2.6-3.2v-0.2
		c0-1.8,0.8-3.2,2.6-3.2s2.6,1.4,2.6,3.2v0.2H16.7z M16.7,26.6h4.6c0-1.7-0.7-2.9-2.3-2.9S16.7,24.9,16.7,26.6z"/>
	<path class="st0" d="M25.5,23.4c1.7,0,2.2,1.2,2.2,2.2v0.1h-0.2c0-1.2-0.6-2.1-2-2.1c-1.6,0-2.4,1.2-2.4,2.9v0.2
		c0,1.8,0.8,2.9,2.4,2.9c1.4,0,2-0.8,2-2h0.2v0.1c0,1-0.5,2.1-2.2,2.1c-1.8,0-2.6-1.4-2.6-3.2v-0.2C22.9,24.8,23.7,23.4,25.5,23.4z"
		/>
	<path class="st0" d="M32.1,23.5v0.2h-2.3v4.6c0,1.2,0.6,1.5,1.4,1.5c0.3,0,0.6-0.1,0.7-0.1v0.2c-0.1,0-0.3,0.1-0.8,0.1
		c-0.9,0-1.6-0.3-1.6-1.6v-4.7h-1v-0.2h1v-1.8h0.2v1.8H32.1z"/>
	<path class="st0" d="M35.8,27v-6.6H36v6.5c0,2.2,1,2.8,2.6,2.8s2.6-0.6,2.6-2.8v-6.5h0.2V27c0,2.4-1.1,3-2.8,3S35.8,29.3,35.8,27z"
		/>
	<path class="st0" d="M47.4,28.2c0-1.1-0.7-1.4-2.2-1.5C43.5,26.6,43,26,43,25.2v-0.1c0-1,0.8-1.7,2.3-1.7c1.7,0,2.3,0.9,2.3,2.1v0
		h-0.2c0-1.2-0.5-1.9-2-1.9c-1.2,0-2,0.5-2,1.5c0,0.9,0.4,1.3,2.1,1.4c1.6,0.1,2.2,0.6,2.2,1.6v0.1c0,1-0.9,1.7-2.3,1.7
		c-1.8,0-2.3-1-2.3-2v0h0.2c0,0.9,0.4,1.8,2.1,1.8C46.6,29.8,47.4,29.2,47.4,28.2z"/>
	<path class="st0" d="M49.2,26.8c0,1.7,0.7,2.9,2.4,2.9s2.3-1,2.3-1.9H54v0.1c0,0.9-0.7,2.1-2.5,2.1c-1.8,0-2.6-1.4-2.6-3.2v-0.2
		c0-1.8,0.8-3.2,2.6-3.2s2.6,1.4,2.6,3.2v0.2H49.2z M49.2,26.6h4.6c0-1.7-0.7-2.9-2.3-2.9C49.9,23.6,49.2,24.9,49.2,26.6z"/>
	<path class="st0" d="M57.8,23.4v0.2h-0.1c-1.1,0-1.7,0.6-1.9,1.2v5.1h-0.2v-5l-0.1-1.5h0.2l0.1,1c0.3-0.5,0.9-1.1,1.9-1.1
		C57.7,23.4,57.8,23.4,57.8,23.4z"/>
	<path class="st0" d="M63,28.2c0-1.1-0.7-1.4-2.2-1.5c-1.7-0.2-2.1-0.7-2.1-1.6v-0.1c0-1,0.8-1.7,2.3-1.7c1.7,0,2.3,0.9,2.3,2.1v0
		H63c0-1.2-0.5-1.9-2-1.9c-1.2,0-2,0.5-2,1.5c0,0.9,0.4,1.3,2.1,1.4c1.6,0.1,2.2,0.6,2.2,1.6v0.1c0,1-0.9,1.7-2.3,1.7
		c-1.8,0-2.3-1-2.3-2v0h0.2c0,0.9,0.4,1.8,2.1,1.8C62.2,29.8,63,29.2,63,28.2z"/>
</g>
<g>
	<path class="st0" d="M29,4.6c0-1.7,1.3-3,3-3s3,1.3,3,3s-1.3,3-3,3S29,6.3,29,4.6z M32,9.6c-4.6,0-6,3.3-6,3.3v1.7h12v-1.7
		C38,12.9,36.6,9.6,32,9.6z"/>
</g>
<g>
	<g>
		<circle class="st0" cx="38.5" cy="4.1" r="2.5"/>
	</g>
	<g>
		<path class="st0" d="M38.5,8.6c-1.2,0-2.1,0.3-2.8,0.8c2.3,1.1,3.2,3,3.2,3.2v0.1H43v-1.3C43,11.3,41.9,8.6,38.5,8.6z"/>
	</g>
</g>
<g>
	<g>
		<circle class="st0" cx="38.5" cy="4.1" r="2.5"/>
	</g>
	<g>
		<path class="st0" d="M38.5,8.6c-1.2,0-2.1,0.3-2.8,0.8c2.3,1.1,3.2,3,3.2,3.2v0.1H43v-1.3C43,11.3,41.9,8.6,38.5,8.6z"/>
	</g>
</g>
<g>
	<g>
		<circle class="st0" cx="25.5" cy="4.1" r="2.5"/>
	</g>
	<g>
		<path class="st0" d="M25.5,8.6c1.2,0,2.1,0.3,2.8,0.8c-2.3,1.1-3.2,3-3.2,3.2v0.1H21v-1.3C21,11.3,22.1,8.6,25.5,8.6z"/>
	</g>
</g>
</svg>
